<svg width="128" height="128" viewBox="0 0 128 128" xmlns="http://www.w3.org/2000/svg">
  <defs>
    <linearGradient id="bg" x1="0" y1="0" x2="1" y2="1">
      <stop offset="0" stop-color="#3b82f6"/>
      <stop offset="1" stop-color="#1d4ed8"/>
    </linearGradient>
  </defs>
  <rect width="128" height="128" rx="28" fill="url(#bg)"/>

  <path d="M64 20 C83 20 98 35 98 54 C98 77 64 108 64 108 C64 108 30 77 30 54 C30 35 45 20 64 20 Z" fill="#ffffff"/>
  <circle cx="64" cy="52" r="11" fill="url(#bg)"/>

  <path d="M42 76 L86 76" stroke="#2563eb" stroke-width="7" stroke-linecap="round"/>
  <path d="M48 76 C48 94 80 94 80 76" stroke="#2563eb" stroke-width="7" fill="none" stroke-linecap="round"/>
  <path d="M46 76 L46 92" stroke="#2563eb" stroke-width="7" stroke-linecap="round"/>
  <path d="M82 76 L82 92" stroke="#2563eb" stroke-width="7" stroke-linecap="round"/>
  <path d="M38 102 Q46 96 54 102 T70 102 T86 102" stroke="#dbeafe" stroke-width="4" fill="none" stroke-linecap="round"/>
</svg>